<svg class="svg-icon" style="width: 1em;height: 1em;vertical-align: middle;fill: currentColor;overflow: hidden;" viewBox="0 0 1024 1024" version="1.1" xmlns="http://www.w3.org/2000/svg"><path d="M512 80.213333A431.744 431.744 0 0 0 80.256 512 431.744 431.744 0 0 0 512 943.744a431.744 431.744 0 0 0 431.744-431.786667A431.744 431.744 0 0 0 512 80.298667z m53.504 103.381334c38.826667 0 70.272 11.093333 94.421333 33.28 24.362667 22.058667 36.565333 50.688 36.565334 85.888 0 37.888-13.610667 71.338667-40.917334 100.266666-27.306667 28.842667-58.709333 43.306667-94.165333 43.306667-20.736 0-37.973333-5.12-51.754667-15.232-13.525333-10.154667-20.309333-22.698667-20.309333-37.589333 0-9.045333 2.56-17.024 7.722667-24.021334 5.418667-6.997333 11.690667-10.496 18.688-10.496 6.784 0 10.154667 3.925333 10.154666 11.818667 0 6.997333 2.56 12.416 7.765334 16.256 5.205333 3.84 11.136 5.76 17.92 5.76 18.048 0 35.328-12.330667 51.84-36.906667 16.682667-24.832 25.045333-51.285333 25.045333-79.488 0-19.882667-6.442667-36.010667-19.328-48.426666-12.842667-12.629333-29.44-19.029333-49.749333-19.029334-30.464 0-59.989333 13.610667-88.661334 40.704-28.416 27.050667-51.669333 62.677333-69.76 106.88-17.792 44.032-26.752 85.973333-26.752 125.696 0 36.565333 7.893333 65.664 23.68 87.338667 15.786667 21.418667 36.821333 32.170667 63.018667 32.170667 44.245333 0 86.528-31.317333 126.890667-93.866667l63.701333-9.088c7.893333-1.109333 11.818667 0.810667 11.818667 5.76 0 2.261333-3.072 11.946667-9.173334 29.098667-6.101333 17.152-14.378667 45.824-25.002666 86.016 34.986667-20.352 62.08-42.837333 81.237333-67.413334v38.954667c-15.36 17.834667-44.629333 37.930667-87.978667 60.288-9.045333 60.032-29.098667 106.325333-59.989333 139.093333-30.933333 32.938667-65.706667 49.493333-104.277333 49.493334-18.474667 0-33.024-4.352-43.648-12.928-10.368-8.576-15.573333-20.394667-15.573334-35.498667 0-41.984 40.746667-82.773333 122.24-122.24a1833.386667 1833.386667 0 0 1 25.002667-82.261333c-14.208 20.522667-34.858667 38.698667-61.909333 54.485333-27.093333 15.786667-52.266667 23.68-75.52 23.68-37.930667 0-69.461333-16.384-94.72-49.066667-25.088-32.981333-37.589333-74.624-37.589334-124.928 0-53.034667 14.208-103.253333 42.666667-150.698666a330.538667 330.538667 0 0 1 112-114.048c46.250667-28.672 91.050667-43.008 134.4-43.008zM513.28 703.573333c-58.666667 29.312-87.978667 58.24-87.978667 86.656 0 15.104 7.210667 22.741333 21.674667 22.741334 28.416 0 50.517333-36.522667 66.304-109.397334z" fill="#26C6DA" /></svg>