<?xml version="1.0" ?><svg viewBox="0 0 22.109 22.105" xmlns="http://www.w3.org/2000/svg"><defs><style>.cls-1{fill:#1a171b;}</style></defs><g data-name="Layer 2" id="Layer_2"><g data-name="Layer 1" id="Layer_1-2"><path class="cls-1" d="M10.606,6.252h1.625a1.339,1.339,0,0,0,2.584,0H18.2a.335.335,0,0,0,0-.67H14.815a1.339,1.339,0,0,0-2.584,0H10.606A.335.335,0,0,0,10.606,6.252Zm2.917-1a.67.67,0,0,1,0,1.34A.67.67,0,0,1,13.523,5.247ZM10.606,9.824H14.8a1.339,1.339,0,0,0,2.584,0c.357-.044,1.144.176,1.15-.334s-.793-.291-1.15-.335a1.339,1.339,0,0,0-2.584,0H10.606A.335.335,0,0,0,10.606,9.824Zm5.485-1a.67.67,0,0,1,0,1.34A.67.67,0,0,1,16.091,8.82ZM11.611,14.4A1.338,1.338,0,0,0,12.9,13.4h5.3a.335.335,0,0,0,0-.67H12.9A1.338,1.338,0,1,0,11.611,14.4Zm0-2.01a.67.67,0,0,1,0,1.34A.67.67,0,0,1,11.611,12.393ZM9.49,20.1h3.126a.335.335,0,0,1,0,.669H9.49A.335.335,0,0,1,9.49,20.1Zm12.58-1.155-1.75-3.5V1.675A1.678,1.678,0,0,0,18.645,0H3.462A1.677,1.677,0,0,0,1.787,1.675V15.438l-1.752,3.5a.34.34,0,0,0-.035.15V20.43a1.676,1.676,0,0,0,1.675,1.675H20.431a1.676,1.676,0,0,0,1.674-1.675A13.885,13.885,0,0,0,22.07,18.941ZM2.457,1.675a1.006,1.006,0,0,1,1.005-1H18.645a1.006,1.006,0,0,1,1,1V3.126H2.457ZM19.65,3.8V15.183H9.156V3.8ZM2.457,3.8H8.486V7.964H3.908a.335.335,0,0,0,0,.67H8.486v6.549H2.457ZM2.328,15.853H19.777l1.451,2.9H.877ZM21.436,20.43a1.007,1.007,0,0,1-1,1.006H1.675a1.007,1.007,0,0,1-1-1.006v-1H21.436Zm-6.8-18.3c-.3.312-.785-.172-.473-.474S14.953,1.828,14.639,2.134Zm1.55.1a.335.335,0,0,1,0-.67A.335.335,0,0,1,16.189,2.232Zm2.023-.1a.335.335,0,0,1-.474-.474C18.039,1.357,18.526,1.831,18.212,2.134ZM7.034,11.016H3.908a.335.335,0,0,1,0-.67H7.034A.335.335,0,0,1,7.034,11.016Zm0,2.381H3.908a.335.335,0,0,1,0-.67H7.034A.335.335,0,0,1,7.034,13.4ZM3.908,5.583H7.034a.335.335,0,0,1,0,.669H3.908A.335.335,0,0,1,3.908,5.583Z" data-name="admin panel" id="admin_panel"/></g></g></svg>